<?xml version="1.0" encoding="UTF-8" standalone="no"?>
<!DOCTYPE svg PUBLIC "-//W3C//DTD SVG 1.1//EN" "http://www.w3.org/Graphics/SVG/1.1/DTD/svg11.dtd">
<svg width="100%" height="100%" viewBox="0 0 134 134" version="1.1" xmlns="http://www.w3.org/2000/svg" xmlns:xlink="http://www.w3.org/1999/xlink" xml:space="preserve" xmlns:serif="http://www.serif.com/" style="fill-rule:evenodd;clip-rule:evenodd;stroke-linejoin:round;stroke-miterlimit:2;">
    <g transform="matrix(1.5,0,0,1.5,0,0)">
        <path d="M42.74,59.08C42.74,61.02 43.14,62.9 43.92,64.65C44.09,65.03 44.39,65.11 44.61,65.11C44.83,65.11 45.13,65.03 45.3,64.65C46.09,62.9 46.48,61.02 46.48,59.08C46.48,55.63 45.67,49.39 44.62,44.86C43.63,48.96 42.73,54.66 42.73,59.08L42.74,59.08Z" style="fill:rgb(207,229,3);fill-rule:nonzero;"/>
        <path d="M56.51,23.38C57.91,23.38 59.05,22.24 59.05,20.84C59.05,19.44 57.91,18.3 56.51,18.3C55.11,18.3 53.97,19.44 53.97,20.84C53.97,22.24 55.11,23.38 56.51,23.38Z" style="fill:rgb(207,229,3);fill-rule:nonzero;"/>
        <path d="M89.23,82.23L89.23,7C89.23,3.13 86.09,0 82.23,0L7,0C3.14,0 0,3.14 0,7L0,82.22C0,86.09 3.14,89.22 7,89.22L82.22,89.22C86.09,89.22 89.22,86.08 89.22,82.22L89.23,82.23ZM56.51,13.2C60.72,13.2 64.14,16.62 64.14,20.83C64.14,25.04 60.72,28.46 56.51,28.46C52.3,28.46 48.88,25.04 48.88,20.83C48.88,16.62 52.3,13.2 56.51,13.2ZM30.22,13.2C34.43,13.2 37.85,16.62 37.85,20.83C37.85,25.04 34.43,28.46 30.22,28.46C26.01,28.46 22.59,25.04 22.59,20.83C22.59,16.62 26.01,13.2 30.22,13.2ZM75.17,73.48C75.17,74.89 74.03,76.02 72.63,76.02C71.23,76.02 70.09,74.88 70.09,73.48L70.09,49.4C70.09,41.7 63.98,35.42 56.47,35.39C53.27,35.4 50.29,36.43 47.87,38.4C50.59,44.23 51.58,56.42 51.58,59.09C51.58,61.76 51.03,64.33 49.95,66.74C48.99,68.88 46.95,70.21 44.62,70.21C42.29,70.21 40.25,68.88 39.29,66.74C38.21,64.33 37.66,61.75 37.66,59.09C37.66,56.43 38.66,44.23 41.37,38.4C38.96,36.45 35.98,35.39 32.82,35.39L32.78,35.39C25.26,35.41 19.15,41.7 19.15,49.41L19.15,73.49C19.15,74.9 18.01,76.03 16.61,76.03C15.21,76.03 14.07,74.89 14.07,73.49L14.07,49.41C14.07,38.9 22.46,30.33 32.78,30.31L32.83,30.31C37.13,30.31 41.31,31.81 44.63,34.49C47.96,31.79 52.15,30.3 56.5,30.31C66.8,30.35 75.19,38.91 75.19,49.41L75.19,73.49L75.17,73.48Z" style="fill:rgb(207,229,3);fill-rule:nonzero;"/>
        <path d="M30.22,23.38C31.62,23.38 32.76,22.24 32.76,20.84C32.76,19.44 31.62,18.3 30.22,18.3C28.82,18.3 27.68,19.44 27.68,20.84C27.68,22.24 28.82,23.38 30.22,23.38Z" style="fill:rgb(207,229,3);fill-rule:nonzero;"/>
    </g>
</svg>
