<?xml version="1.0" encoding="UTF-8" standalone="no"?>
<!DOCTYPE svg PUBLIC "-//W3C//DTD SVG 1.1//EN" "http://www.w3.org/Graphics/SVG/1.1/DTD/svg11.dtd">
<svg width="100%" height="100%" viewBox="0 0 297 119" version="1.1" xmlns="http://www.w3.org/2000/svg" xmlns:xlink="http://www.w3.org/1999/xlink" xml:space="preserve" xmlns:serif="http://www.serif.com/" style="fill-rule:evenodd;clip-rule:evenodd;stroke-linejoin:round;stroke-miterlimit:2;">
    <g transform="matrix(1.33333,0,0,1.33333,0,0)">
        <path d="M104.73,17.92C104.73,17.3 104.95,16.88 105.39,16.67C105.54,16.6 105.72,16.56 105.94,16.56L113.3,16.56C115.37,16.56 117.13,17 118.58,17.87C120.35,18.91 121.24,20.51 121.24,22.66C121.24,24.13 120.82,25.35 119.97,26.33C119.21,27.19 118.24,27.74 117.06,27.98L117.06,28.04C118.67,28.11 120.01,28.58 121.08,29.45C122.29,30.46 122.9,31.82 122.9,33.53C122.9,36.02 121.99,37.89 120.16,39.14C118.57,40.25 116.41,40.8 113.67,40.8L105.93,40.8C105.5,40.8 105.19,40.67 105,40.4C104.81,40.13 104.72,39.81 104.72,39.44L104.72,17.91L104.73,17.92ZM108.66,26.87C110.26,26.87 111.54,26.84 112.5,26.78C114.12,26.69 115.32,26.32 116.07,25.7C116.82,25.08 117.21,24.19 117.21,23.07C117.21,21.95 116.81,21.13 116,20.64C115.19,20.15 113.99,19.9 112.39,19.9L108.66,19.9L108.66,26.88L108.66,26.87ZM113.66,37.44C115.98,37.44 117.52,36.78 118.28,35.46C118.56,34.97 118.71,34.41 118.71,33.75C118.71,33.09 118.62,32.57 118.44,32.18C118.26,31.79 118.02,31.46 117.71,31.18C117.4,30.91 117.05,30.69 116.63,30.52C116.22,30.36 115.79,30.23 115.33,30.13C114.54,29.98 113.75,29.91 112.96,29.91C111.97,29.91 110.92,29.94 109.81,29.99L108.65,30.04L108.67,37.43L113.65,37.43L113.66,37.44Z" style="fill:white;fill-rule:nonzero;"/>
        <path d="M142.29,39.97C142.29,40.53 142.02,40.81 141.47,40.81L139.94,40.81C139.53,40.81 139.28,40.73 139.2,40.56C139.12,40.4 139.07,40.25 139.06,40.12C139.05,39.99 139.03,39.83 139,39.64C138.94,39.12 138.85,38.56 138.73,37.96C137.91,39.47 136.62,40.46 134.85,40.95C134.23,41.12 133.54,41.2 132.79,41.2C132.04,41.2 131.29,41.08 130.54,40.83C129.79,40.58 129.13,40.22 128.55,39.73C127.24,38.63 126.59,37.19 126.59,35.41C126.59,33.46 127.31,31.97 128.74,30.93C129.92,30.1 131.44,29.68 133.3,29.68C135.16,29.68 136.73,30.22 138.01,31.31C138.04,30.95 138.06,30.5 138.06,29.97C138.06,29.44 137.95,28.89 137.74,28.36C137.53,27.82 137.23,27.37 136.84,27.02C136.04,26.31 134.92,25.96 133.49,25.96C132.2,25.96 130.9,26.31 129.57,27.02C129.32,27.16 129.1,27.23 128.91,27.23C128.63,27.23 128.35,26.95 128.09,26.39C127.81,25.82 127.66,25.41 127.66,25.16C127.66,24.7 128.01,24.25 128.7,23.82C130.03,23 131.81,22.59 134.03,22.59C136.05,22.59 137.73,23.14 139.06,24.25C140.63,25.58 141.42,27.46 141.42,29.88C141.42,30.96 141.25,32.31 140.9,33.94C141.8,36.49 142.27,38.51 142.31,39.98L142.29,39.97ZM131.69,33.26C131.26,33.58 130.95,33.9 130.76,34.22C130.57,34.54 130.48,34.91 130.48,35.33C130.48,35.75 130.56,36.14 130.71,36.47C130.86,36.8 131.08,37.08 131.35,37.3C131.93,37.75 132.58,37.98 133.3,37.98C134.02,37.98 134.62,37.9 135.08,37.73C135.54,37.56 135.94,37.34 136.28,37.08C137.01,36.51 137.37,35.91 137.37,35.28C137.31,34.49 136.87,33.87 136.06,33.41C135.33,32.99 134.47,32.78 133.48,32.78C132.71,32.78 132.11,32.94 131.68,33.26L131.69,33.26Z" style="fill:white;fill-rule:nonzero;"/>
        <path d="M146.02,24.11C146.02,23.35 146.38,22.97 147.11,22.97L147.98,22.97C148.57,22.97 148.97,23.19 149.18,23.63C149.48,24.26 149.73,25.1 149.94,26.13C150.89,24.4 152.3,23.29 154.18,22.81C154.77,22.65 155.51,22.57 156.39,22.57C157.27,22.57 158.08,22.76 158.83,23.13C159.58,23.5 160.17,24.02 160.6,24.67C161.4,25.86 161.8,27.62 161.8,29.94L161.8,39.76C161.8,40.06 161.71,40.3 161.52,40.5C161.33,40.7 161.05,40.8 160.68,40.8L159.13,40.8C158.73,40.8 158.43,40.7 158.24,40.5C158.05,40.3 157.96,40.05 157.96,39.76L157.96,29.92C157.96,27.22 156.97,25.87 154.99,25.87C153.83,25.87 152.77,26.36 151.81,27.33C150.79,28.37 150.28,29.59 150.28,30.97L150.28,39.76C150.28,40.06 150.19,40.3 150.01,40.5C149.83,40.7 149.56,40.8 149.19,40.8L147.56,40.8C147.19,40.8 146.91,40.7 146.72,40.5C146.53,40.3 146.44,40.05 146.44,39.76L146.44,30.05C146.44,27.93 146.37,26.45 146.23,25.61C146.09,24.77 146.02,24.27 146.02,24.1L146.02,24.11Z" style="fill:white;fill-rule:nonzero;"/>
        <path d="M181.94,39.97C181.94,40.53 181.67,40.81 181.12,40.81L179.59,40.81C179.18,40.81 178.93,40.73 178.85,40.56C178.77,40.4 178.72,40.25 178.71,40.12C178.7,39.99 178.68,39.83 178.65,39.64C178.59,39.12 178.5,38.56 178.38,37.96C177.56,39.47 176.27,40.46 174.5,40.95C173.88,41.12 173.19,41.2 172.44,41.2C171.69,41.2 170.94,41.08 170.19,40.83C169.44,40.58 168.78,40.22 168.2,39.73C166.89,38.63 166.24,37.19 166.24,35.41C166.24,33.46 166.96,31.97 168.39,30.93C169.57,30.1 171.09,29.68 172.95,29.68C174.81,29.68 176.38,30.22 177.66,31.31C177.69,30.95 177.71,30.5 177.71,29.97C177.71,29.44 177.6,28.89 177.39,28.36C177.18,27.82 176.88,27.37 176.49,27.02C175.69,26.31 174.57,25.96 173.14,25.96C171.85,25.96 170.55,26.31 169.22,27.02C168.97,27.16 168.75,27.23 168.56,27.23C168.28,27.23 168,26.95 167.74,26.39C167.46,25.82 167.31,25.41 167.31,25.16C167.31,24.7 167.66,24.25 168.35,23.82C169.68,23 171.46,22.59 173.68,22.59C175.7,22.59 177.38,23.14 178.71,24.25C180.28,25.58 181.07,27.46 181.07,29.88C181.07,30.96 180.9,32.31 180.55,33.94C181.45,36.49 181.92,38.51 181.96,39.98L181.94,39.97ZM171.34,33.26C170.91,33.58 170.6,33.9 170.41,34.22C170.22,34.54 170.13,34.91 170.13,35.33C170.13,35.75 170.21,36.14 170.36,36.47C170.51,36.8 170.73,37.08 171,37.3C171.58,37.75 172.23,37.98 172.95,37.98C173.67,37.98 174.27,37.9 174.73,37.73C175.19,37.56 175.59,37.34 175.93,37.08C176.66,36.51 177.02,35.91 177.02,35.28C176.96,34.49 176.52,33.87 175.71,33.41C174.98,32.99 174.12,32.78 173.13,32.78C172.36,32.78 171.76,32.94 171.33,33.26L171.34,33.26Z" style="fill:white;fill-rule:nonzero;"/>
        <path d="M186.5,24.11C186.5,23.35 186.86,22.97 187.59,22.97L188.46,22.97C189.05,22.97 189.45,23.19 189.66,23.63C189.96,24.26 190.21,25.1 190.42,26.13C191.37,24.4 192.78,23.29 194.66,22.81C195.25,22.65 195.99,22.57 196.87,22.57C197.75,22.57 198.56,22.76 199.31,23.13C200.06,23.5 200.65,24.02 201.08,24.67C201.88,25.86 202.28,27.62 202.28,29.94L202.28,39.76C202.28,40.06 202.19,40.3 202,40.5C201.81,40.7 201.53,40.8 201.16,40.8L199.61,40.8C199.21,40.8 198.91,40.7 198.72,40.5C198.53,40.3 198.44,40.05 198.44,39.76L198.44,29.92C198.44,27.22 197.45,25.87 195.47,25.87C194.31,25.87 193.25,26.36 192.29,27.33C191.27,28.37 190.76,29.59 190.76,30.97L190.76,39.76C190.76,40.06 190.67,40.3 190.49,40.5C190.31,40.7 190.04,40.8 189.67,40.8L188.04,40.8C187.67,40.8 187.39,40.7 187.2,40.5C187.01,40.3 186.92,40.05 186.92,39.76L186.92,30.05C186.92,27.93 186.85,26.45 186.71,25.61C186.57,24.77 186.5,24.27 186.5,24.1L186.5,24.11Z" style="fill:white;fill-rule:nonzero;"/>
        <path d="M222.42,39.97C222.42,40.53 222.15,40.81 221.6,40.81L220.07,40.81C219.66,40.81 219.41,40.73 219.33,40.56C219.25,40.4 219.2,40.25 219.19,40.12C219.18,39.99 219.16,39.83 219.13,39.64C219.07,39.12 218.98,38.56 218.86,37.96C218.04,39.47 216.75,40.46 214.98,40.95C214.36,41.12 213.67,41.2 212.92,41.2C212.17,41.2 211.42,41.08 210.67,40.83C209.92,40.58 209.26,40.22 208.68,39.73C207.37,38.63 206.72,37.19 206.72,35.41C206.72,33.46 207.44,31.97 208.87,30.93C210.05,30.1 211.57,29.68 213.43,29.68C215.29,29.68 216.86,30.22 218.14,31.31C218.17,30.95 218.19,30.5 218.19,29.97C218.19,29.44 218.08,28.89 217.87,28.36C217.66,27.82 217.36,27.37 216.97,27.02C216.17,26.31 215.05,25.96 213.62,25.96C212.33,25.96 211.03,26.31 209.7,27.02C209.45,27.16 209.23,27.23 209.04,27.23C208.76,27.23 208.48,26.95 208.22,26.39C207.94,25.82 207.79,25.41 207.79,25.16C207.79,24.7 208.14,24.25 208.83,23.82C210.16,23 211.94,22.59 214.16,22.59C216.18,22.59 217.86,23.14 219.19,24.25C220.76,25.58 221.55,27.46 221.55,29.88C221.55,30.96 221.38,32.31 221.03,33.94C221.93,36.49 222.4,38.51 222.44,39.98L222.42,39.97ZM211.82,33.26C211.39,33.58 211.08,33.9 210.89,34.22C210.71,34.54 210.61,34.91 210.61,35.33C210.61,35.75 210.69,36.14 210.84,36.47C210.99,36.8 211.21,37.08 211.48,37.3C212.06,37.75 212.71,37.98 213.43,37.98C214.15,37.98 214.75,37.9 215.21,37.73C215.67,37.56 216.07,37.34 216.41,37.08C217.14,36.51 217.5,35.91 217.5,35.28C217.44,34.49 217,33.87 216.19,33.41C215.46,32.99 214.6,32.78 213.61,32.78C212.84,32.78 212.24,32.94 211.81,33.26L211.82,33.26Z" style="fill:white;fill-rule:nonzero;"/>
        <path d="M111.44,51.47L105.73,51.47C105.46,51.47 105.22,51.38 105.03,51.21C104.83,51.04 104.74,50.82 104.74,50.57L104.74,48.91C104.74,48.67 104.84,48.46 105.03,48.29C105.22,48.12 105.46,48.03 105.73,48.03L121.36,48.03C121.63,48.03 121.84,48.12 121.98,48.29C122.12,48.46 122.19,48.68 122.19,48.93L122.19,50.59C122.19,50.83 122.12,51.04 121.97,51.22C121.82,51.39 121.61,51.48 121.34,51.48L115.42,51.48L115.42,71.27C115.42,71.54 115.33,71.78 115.16,71.98C114.99,72.18 114.78,72.28 114.54,72.28L112.31,72.28C112.07,72.28 111.86,72.18 111.69,71.98C111.52,71.78 111.44,71.54 111.44,71.27L111.44,51.47Z" style="fill:white;fill-rule:nonzero;"/>
        <path d="M136.74,71.43C136.74,71.99 136.47,72.27 135.92,72.27L134.39,72.27C133.98,72.27 133.73,72.19 133.65,72.02C133.57,71.86 133.52,71.71 133.51,71.58C133.5,71.45 133.48,71.29 133.45,71.1C133.39,70.58 133.3,70.02 133.18,69.42C132.36,70.93 131.07,71.92 129.3,72.41C128.68,72.58 127.99,72.66 127.24,72.66C126.49,72.66 125.74,72.54 124.99,72.29C124.24,72.04 123.58,71.68 123,71.19C121.69,70.09 121.04,68.65 121.04,66.87C121.04,64.92 121.76,63.43 123.19,62.39C124.37,61.56 125.89,61.14 127.75,61.14C129.61,61.14 131.18,61.68 132.46,62.77C132.49,62.41 132.51,61.96 132.51,61.43C132.51,60.9 132.4,60.35 132.19,59.82C131.98,59.28 131.68,58.83 131.29,58.48C130.49,57.77 129.37,57.42 127.94,57.42C126.65,57.42 125.35,57.77 124.02,58.48C123.77,58.62 123.55,58.69 123.36,58.69C123.08,58.69 122.8,58.41 122.54,57.85C122.26,57.28 122.11,56.87 122.11,56.62C122.11,56.16 122.46,55.71 123.15,55.28C124.48,54.46 126.26,54.05 128.48,54.05C130.5,54.05 132.18,54.6 133.51,55.71C135.08,57.04 135.87,58.92 135.87,61.34C135.87,62.42 135.7,63.77 135.35,65.4C136.25,67.95 136.72,69.97 136.76,71.44L136.74,71.43ZM126.14,64.72C125.71,65.04 125.4,65.36 125.21,65.68C125.03,66 124.93,66.37 124.93,66.79C124.93,67.21 125.01,67.6 125.16,67.93C125.31,68.26 125.53,68.54 125.8,68.76C126.38,69.21 127.03,69.44 127.75,69.44C128.47,69.44 129.07,69.36 129.53,69.19C129.99,69.02 130.39,68.8 130.73,68.54C131.46,67.97 131.82,67.37 131.82,66.74C131.76,65.95 131.32,65.33 130.51,64.87C129.78,64.45 128.92,64.24 127.93,64.24C127.16,64.24 126.56,64.4 126.13,64.72L126.14,64.72Z" style="fill:white;fill-rule:nonzero;"/>
        <path d="M145.15,67.92C145.15,68.67 145.41,69.04 145.94,69.04C146.11,69.04 146.32,68.99 146.59,68.9C147.08,68.72 147.37,68.63 147.48,68.63C147.72,68.63 147.91,68.78 148.05,69.09L148.54,70.21C148.6,70.37 148.63,70.52 148.63,70.65C148.63,70.89 148.43,71.19 148.03,71.54C147.23,72.2 146.18,72.54 144.88,72.54C142.52,72.54 141.34,70.96 141.34,67.81L141.34,45.25C141.34,44.97 141.42,44.72 141.59,44.52C141.76,44.32 141.96,44.22 142.19,44.22L144.31,44.22C144.55,44.22 144.75,44.32 144.91,44.52C145.07,44.72 145.15,44.96 145.15,45.25L145.15,67.92Z" style="fill:white;fill-rule:nonzero;"/>
        <path d="M154.75,64.22L154.73,64.52C154.73,65.96 155.19,67.12 156.11,68C157.07,68.93 158.37,69.39 160.02,69.39C161.52,69.39 162.91,68.94 164.2,68.05C164.44,67.88 164.66,67.8 164.85,67.8C165.24,67.8 165.54,68 165.74,68.39L166.17,69.28C166.26,69.49 166.31,69.72 166.31,69.96C166.31,70.2 166.2,70.45 165.99,70.71C165.77,70.97 165.49,71.2 165.14,71.41C164.79,71.62 164.39,71.81 163.93,71.96C163.47,72.12 163,72.25 162.51,72.35C161.54,72.56 160.53,72.67 159.47,72.67C158.41,72.67 157.35,72.47 156.28,72.07C155.21,71.67 154.28,71.08 153.5,70.31C151.82,68.68 150.99,66.47 150.99,63.68C150.99,58.8 152.71,55.76 156.15,54.57C157.23,54.2 158.33,54.02 159.46,54.02C160.59,54.02 161.56,54.14 162.35,54.38C163.15,54.62 163.83,54.98 164.41,55.46C165.63,56.46 166.24,57.86 166.24,59.65C166.24,61.44 165.52,62.76 164.09,63.68C162.84,64.49 161.18,64.9 159.12,64.9C157.85,64.9 156.39,64.67 154.74,64.22L154.75,64.22ZM162.53,59.6C162.53,58.09 161.52,57.34 159.49,57.34C157.46,57.34 156.21,58.05 155.44,59.46C155.17,59.96 154.99,60.57 154.9,61.29C155.81,61.74 156.96,61.97 158.36,61.97C161.13,61.97 162.52,61.18 162.52,59.6L162.53,59.6Z" style="fill:white;fill-rule:nonzero;"/>
        <path d="M170.17,55.57C170.17,54.81 170.53,54.43 171.26,54.43L172.13,54.43C172.72,54.43 173.12,54.65 173.33,55.09C173.63,55.72 173.88,56.56 174.09,57.59C175.04,55.86 176.45,54.75 178.33,54.27C178.92,54.11 179.66,54.03 180.54,54.03C181.42,54.03 182.23,54.22 182.98,54.59C183.73,54.96 184.32,55.48 184.75,56.13C185.55,57.32 185.95,59.08 185.95,61.4L185.95,71.22C185.95,71.52 185.86,71.76 185.67,71.96C185.48,72.16 185.2,72.26 184.83,72.26L183.28,72.26C182.88,72.26 182.58,72.16 182.39,71.96C182.2,71.76 182.11,71.51 182.11,71.22L182.11,61.38C182.11,58.68 181.12,57.33 179.14,57.33C177.98,57.33 176.92,57.82 175.96,58.79C174.94,59.83 174.43,61.05 174.43,62.43L174.43,71.22C174.43,71.52 174.34,71.76 174.16,71.96C173.98,72.16 173.71,72.26 173.34,72.26L171.71,72.26C171.34,72.26 171.06,72.16 170.87,71.96C170.68,71.76 170.59,71.51 170.59,71.22L170.59,61.51C170.59,59.39 170.52,57.91 170.38,57.07C170.24,56.23 170.17,55.73 170.17,55.56L170.17,55.57Z" style="fill:white;fill-rule:nonzero;"/>
        <path d="M200.59,56.83C200.59,57.42 200.26,57.72 199.59,57.72L195.13,57.72L195.13,67.65C195.13,68.73 195.66,69.26 196.73,69.26C197.4,69.26 198.29,68.92 199.37,68.25C199.58,68.11 199.81,68.04 200.06,68.04C200.31,68.04 200.51,68.21 200.65,68.56L201.01,69.38C201.15,69.7 201.22,69.97 201.22,70.19C201.22,70.41 201.05,70.67 200.72,70.96C200.39,71.25 199.96,71.51 199.45,71.74C198.28,72.27 197.22,72.53 196.27,72.53C195.32,72.53 194.57,72.43 194.02,72.24C193.47,72.04 192.99,71.75 192.6,71.36C191.76,70.54 191.33,69.35 191.33,67.8L191.33,57.71L190,57.71C189.34,57.71 189,57.41 189,56.81L189,55.91C189,55.67 189.06,55.48 189.19,55.34C189.32,55.2 189.56,55.1 189.93,55.02L191.51,54.56L192.11,50.84C192.23,50.14 192.51,49.8 192.96,49.8L194.27,49.8C194.51,49.8 194.71,49.9 194.87,50.09C195.03,50.29 195.11,50.54 195.11,50.84L195.11,54.41L199.57,54.41C200.23,54.41 200.57,54.7 200.57,55.28L200.57,56.81L200.59,56.83Z" style="fill:white;fill-rule:nonzero;"/>
        <path d="M42.74,59.08C42.74,61.02 43.14,62.9 43.92,64.65C44.09,65.03 44.39,65.11 44.61,65.11C44.83,65.11 45.13,65.03 45.3,64.65C46.09,62.9 46.48,61.02 46.48,59.08C46.48,55.63 45.67,49.39 44.62,44.86C43.63,48.96 42.73,54.66 42.73,59.08L42.74,59.08Z" style="fill:rgb(207,229,3);fill-rule:nonzero;"/>
        <path d="M56.51,23.38C57.91,23.38 59.05,22.24 59.05,20.84C59.05,19.44 57.91,18.3 56.51,18.3C55.11,18.3 53.97,19.44 53.97,20.84C53.97,22.24 55.11,23.38 56.51,23.38Z" style="fill:rgb(207,229,3);fill-rule:nonzero;"/>
        <path d="M89.23,82.23L89.23,7C89.23,3.13 86.09,0 82.23,0L7,0C3.14,0 0,3.14 0,7L0,82.22C0,86.09 3.14,89.22 7,89.22L82.22,89.22C86.09,89.22 89.22,86.08 89.22,82.22L89.23,82.23ZM56.51,13.2C60.72,13.2 64.14,16.62 64.14,20.83C64.14,25.04 60.72,28.46 56.51,28.46C52.3,28.46 48.88,25.04 48.88,20.83C48.88,16.62 52.3,13.2 56.51,13.2ZM30.22,13.2C34.43,13.2 37.85,16.62 37.85,20.83C37.85,25.04 34.43,28.46 30.22,28.46C26.01,28.46 22.59,25.04 22.59,20.83C22.59,16.62 26.01,13.2 30.22,13.2ZM75.17,73.48C75.17,74.89 74.03,76.02 72.63,76.02C71.23,76.02 70.09,74.88 70.09,73.48L70.09,49.4C70.09,41.7 63.98,35.42 56.47,35.39C53.27,35.4 50.29,36.43 47.87,38.4C50.59,44.23 51.58,56.42 51.58,59.09C51.58,61.76 51.03,64.33 49.95,66.74C48.99,68.88 46.95,70.21 44.62,70.21C42.29,70.21 40.25,68.88 39.29,66.74C38.21,64.33 37.66,61.75 37.66,59.09C37.66,56.43 38.66,44.23 41.37,38.4C38.96,36.45 35.98,35.39 32.82,35.39L32.78,35.39C25.26,35.41 19.15,41.7 19.15,49.41L19.15,73.49C19.15,74.9 18.01,76.03 16.61,76.03C15.21,76.03 14.07,74.89 14.07,73.49L14.07,49.41C14.07,38.9 22.46,30.33 32.78,30.31L32.83,30.31C37.13,30.31 41.31,31.81 44.63,34.49C47.96,31.79 52.15,30.3 56.5,30.31C66.8,30.35 75.19,38.91 75.19,49.41L75.19,73.49L75.17,73.48Z" style="fill:rgb(207,229,3);fill-rule:nonzero;"/>
        <path d="M30.22,23.38C31.62,23.38 32.76,22.24 32.76,20.84C32.76,19.44 31.62,18.3 30.22,18.3C28.82,18.3 27.68,19.44 27.68,20.84C27.68,22.24 28.82,23.38 30.22,23.38Z" style="fill:rgb(207,229,3);fill-rule:nonzero;"/>
    </g>
</svg>
